# xmcd
#
# Track frame offsets: 
#        150
#        45150
#        90150
#        135150
#        180150
#        225150
#
# Disc length: 3484 seconds
#
# Revision: 1
# Processed by: cddbd v1.5.2PL0 Copyright (c) Steve Scherf et al.
# Submitted via: ExactAudioCopyFreeDBPlugin 1.0
#
DISCID=270d9a06
DTITLE=Binky Griptite (of The Dap-Kings) - WDAP:  Binky Griptite's Ghe
DTITLE=ttoFunkPowerHour
DYEAR=2007
DGENRE=Soul
TTITLE0=GhettoFunkPowerHour Part 1
TTITLE1=GhettoFunkPowerHour Part 2
TTITLE2=GhettoFunkPowerHour Part 3
TTITLE3=GhettoFunkPowerHour Part 4
TTITLE4=GhettoFunkPowerHour Part 5
TTITLE5=GhettoFunkPowerHour Part 6
EXTD=Came as a bonus disc with Sharon Jones and The Dap Kings - "100 Day
EXTD=s, 100 Nights"
EXTT0=
EXTT1=
EXTT2=
EXTT3=
EXTT4=
EXTT5=
PLAYORDER=
